<svg xmlns="http://www.w3.org/2000/svg" width="420" height="428" viewBox="0 0 420 428"><g transform="translate(-1448 -614)"><rect width="20" height="20" rx="10" transform="translate(1798 716)" fill="#edf2f7"/><rect width="20" height="20" rx="10" transform="translate(1848 665)" fill="#edf2f7"/><rect width="20" height="20" rx="10" transform="translate(1848 716)" fill="#edf2f7"/><rect width="20" height="20" rx="10" transform="translate(1548 1022)" fill="#edf2f7"/><rect width="20" height="20" rx="10" transform="translate(1798 665)" fill="#edf2f7"/><rect width="20" height="20" rx="10" transform="translate(1748 716)" fill="#edf2f7"/><rect width="20" height="20" rx="10" transform="translate(1648 818)" fill="#edf2f7"/><rect width="20" height="20" rx="10" transform="translate(1648 869)" fill="#edf2f7"/><rect width="20" height="20" rx="10" transform="translate(1698 767)" fill="#edf2f7"/><rect width="20" height="20" rx="10" transform="translate(1698 767)" fill="#edf2f7"/><rect width="20" height="20" rx="10" transform="translate(1698 818)" fill="#edf2f7"/><rect width="20" height="20" rx="10" transform="translate(1698 869)" fill="#edf2f7"/><rect width="20" height="20" rx="10" transform="translate(1748 767)" fill="#edf2f7"/><rect width="20" height="20" rx="10" transform="translate(1748 767)" fill="#edf2f7"/><rect width="20" height="20" rx="10" transform="translate(1748 818)" fill="#edf2f7"/><rect width="20" height="20" rx="10" transform="translate(1748 869)" fill="#edf2f7"/><rect width="20" height="20" rx="10" transform="translate(1798 767)" fill="#edf2f7"/><rect width="20" height="20" rx="10" transform="translate(1798 767)" fill="#edf2f7"/><rect width="20" height="20" rx="10" transform="translate(1798 818)" fill="#edf2f7"/><rect width="20" height="20" rx="10" transform="translate(1798 869)" fill="#edf2f7"/><rect width="20" height="20" rx="10" transform="translate(1848 767)" fill="#edf2f7"/><rect width="20" height="20" rx="10" transform="translate(1848 767)" fill="#edf2f7"/><rect width="20" height="20" rx="10" transform="translate(1848 818)" fill="#edf2f7"/><rect width="20" height="20" rx="10" transform="translate(1848 869)" fill="#edf2f7"/><rect width="20" height="20" rx="10" transform="translate(1598 920)" fill="#edf2f7"/><rect width="20" height="20" rx="10" transform="translate(1598 869)" fill="#edf2f7"/><rect width="20" height="20" rx="10" transform="translate(1598 971)" fill="#edf2f7"/><rect width="20" height="20" rx="10" transform="translate(1598 1022)" fill="#edf2f7"/><rect width="20" height="20" rx="10" transform="translate(1648 920)" fill="#edf2f7"/><rect width="20" height="20" rx="10" transform="translate(1648 920)" fill="#edf2f7"/><rect width="20" height="20" rx="10" transform="translate(1648 971)" fill="#edf2f7"/><rect width="20" height="20" rx="10" transform="translate(1648 1022)" fill="#edf2f7"/><rect width="20" height="20" rx="10" transform="translate(1698 920)" fill="#edf2f7"/><rect width="20" height="20" rx="10" transform="translate(1698 920)" fill="#edf2f7"/><rect width="20" height="20" rx="10" transform="translate(1698 971)" fill="#edf2f7"/><rect width="20" height="20" rx="10" transform="translate(1698 1022)" fill="#edf2f7"/><rect width="20" height="20" rx="10" transform="translate(1748 920)" fill="#edf2f7"/><rect width="20" height="20" rx="10" transform="translate(1748 920)" fill="#edf2f7"/><rect width="20" height="20" rx="10" transform="translate(1748 971)" fill="#edf2f7"/><rect width="20" height="20" rx="10" transform="translate(1748 1022)" fill="#edf2f7"/><rect width="20" height="20" rx="10" transform="translate(1798 920)" fill="#edf2f7"/><rect width="20" height="20" rx="10" transform="translate(1798 920)" fill="#edf2f7"/><rect width="20" height="20" rx="10" transform="translate(1798 971)" fill="#edf2f7"/><rect width="20" height="20" rx="10" transform="translate(1798 1022)" fill="#edf2f7"/><rect width="20" height="20" rx="10" transform="translate(1848 920)" fill="#edf2f7"/><rect width="20" height="20" rx="10" transform="translate(1848 920)" fill="#edf2f7"/><rect width="20" height="20" rx="10" transform="translate(1848 971)" fill="#edf2f7"/><rect width="20" height="20" rx="10" transform="translate(1848 1022)" fill="#edf2f7"/><rect width="20" height="20" rx="10" transform="translate(1548 920)" fill="#edf2f7"/><rect width="20" height="20" rx="10" transform="translate(1548 971)" fill="#edf2f7"/><rect width="20" height="20" rx="10" transform="translate(1498 971)" fill="#edf2f7"/><rect width="20" height="20" rx="10" transform="translate(1498 1022)" fill="#edf2f7"/><rect width="20" height="20" rx="10" transform="translate(1448 1022)" fill="#edf2f7"/><rect width="20" height="20" rx="10" transform="translate(1848 614)" fill="#edf2f7"/></g></svg>